<svg width="250" height="88" viewBox="0 0 250 88" fill="none" xmlns="http://www.w3.org/2000/svg">
<path fill-rule="evenodd" clip-rule="evenodd" d="M14.5872 43.0651C14.5441 51.2626 20.555 56.1495 30.1472 53.9276V32.2026C20.4338 29.2445 14.6278 35.2291 14.5872 43.0651ZM30.4406 0.788818H43.6519V63.3223C30.9884 65.3926 18.86 66.7057 10.1834 61.8541C-0.988432 55.6079 -1.88656 35.7585 6.95376 26.9179C11.4359 22.436 20.4594 19.2807 30.1472 21.3398V1.66977C30.1219 1.25289 30.0984 0.837878 30.4406 0.788818Z" fill="green"/>
<path fill-rule="evenodd" clip-rule="evenodd" d="M65.0836 14.5872H51.8723V0.788818H65.0836V14.5872Z" fill="green"/>
<path fill-rule="evenodd" clip-rule="evenodd" d="M223.619 54.5146C238.021 60.1115 239.614 28.7359 225.087 31.615C216.065 33.4031 216.355 51.6918 223.619 54.5146ZM224.206 20.7525C235.204 19.5765 243.502 24.43 246.812 31.9087C252.46 44.669 246.502 59.3109 237.418 63.6159C232.709 65.8471 227.779 66.0596 223.325 65.6709C209.559 64.4703 200.876 50.4403 205.71 34.8443C206.467 32.4034 207.317 30.9103 207.766 30.1471C210.758 25.059 215.81 21.6503 224.206 20.7525Z" fill="green"/>
<path fill-rule="evenodd" clip-rule="evenodd" d="M83.2859 49.5239C79.6318 55.6649 88.8127 57.1361 94.7352 55.3958V46.2945C90.1846 46.9298 85.0049 46.6342 83.2859 49.5239ZM106.479 63.9095C95.5655 64.5374 78.9805 68.2548 73.0102 60.9739C69.5027 56.6958 69.8799 48.5361 73.0102 44.533C77.0555 39.3605 85.8862 38.2324 93.8546 37.487C94.578 35.7058 94.0902 32.8077 93.2674 31.6149C85.9787 29.7583 78.7368 32.6352 73.5977 34.8442V24.5692C81.3596 21.003 99.3384 17.248 104.717 25.4499C107.542 29.7577 106.479 37.2705 106.479 43.9455V63.9095Z" fill="green"/>
<path fill-rule="evenodd" clip-rule="evenodd" d="M152.865 64.4969H139.654V47.4688C139.654 41.8622 140.561 34.7531 137.598 32.496C135.278 30.7272 129.774 31.6147 126.443 32.496V64.4969H113.231V23.6885C126.737 20.1803 151.114 16.4191 152.865 33.3766C153.729 41.7372 152.226 54.2807 152.865 64.4969Z" fill="green"/>
<path fill-rule="evenodd" clip-rule="evenodd" d="M172.535 50.4045C174.758 54.0013 180.778 55.3501 185.746 53.0467C185.473 46.1757 185.378 39.1273 185.453 31.9085C174.035 28.892 167.231 41.8245 172.535 50.4045ZM205.71 22.5142C204.534 26.0357 202.813 29.0117 201.307 32.2026C199.945 32.5076 198.765 31.6613 198.077 32.2026C197.776 46.5135 201.125 65.9141 195.435 76.2398C192.009 82.4566 185.701 86.4451 176.058 87.1026C169.033 87.5817 163.581 86.4338 158.443 84.4604V72.1298C164.47 75.6485 179.698 78.5173 183.985 71.2488C185.246 69.1104 185.166 66.9001 185.746 63.6157C182.986 63.7607 180.307 65.0389 176.939 65.0839C163.093 65.2676 154.527 54.2429 157.856 38.9545C159.143 33.0407 162.608 28.2792 167.251 25.4498C176.893 19.5732 191.714 20.0195 205.71 22.5142Z" fill="green"/>
<path fill-rule="evenodd" clip-rule="evenodd" d="M65.0836 21.5742C65.0686 31.3027 65.0708 38.2933 65.0699 50.112C64.5086 61.7267 64.6393 70.9758 60.3864 76.5333C59.5477 77.6292 57.7665 79.228 56.2761 80.3502C55.0246 81.2923 52.6393 83.203 51.2852 83.2861C49.9202 83.3699 46.4133 81.3911 44.8261 80.6436C42.7421 79.6621 40.8155 78.3586 38.6611 77.708C43.6864 74.5939 48.4568 72.2592 50.4043 65.9645C52.098 60.4902 51.8724 52.5573 51.8724 44.8264C51.8724 37.1927 51.9064 28.3177 51.9064 21.5777L65.0836 21.5742Z" fill="green"/>
</svg>
